# xmcd
#
# Track frame offsets:
#	150
#	17106
#	34911
#	51418
#	66495
#	82770
#	96599
#	115853
#	132913
#	147900
#	165674
#	186099
#	202378
#	222774
#	239768
#	256837
#	273382
#	290016
#	308248
#	323674
#	340438
#
# Disc length: 4603 seconds
#
# Revision: 8
# Processed by: cddbd v1.5.2PL0 Copyright (c) Steve Scherf et al.
# Submitted via: audiograbber 1.83.01
#
DISCID=4f11f915
DTITLE=Various Artist - Viva Hits 12 [CD 2)
DYEAR=2001
DGENRE=Pop
TTITLE0=Malaria vs. Chicks On Speed - Kaltes klares Wasser [Chicks On Speed Rad
TTITLE0=io Edit]
TTITLE1=DJ Tomcraft - Prosac
TTITLE2=Ratty - Sunrise
TTITLE3=Re-Flex - Ubap
TTITLE4=DJ Tomekk feat. KRS One, Torch  MC Rene - Return Of Hip Hop
TTITLE5=Nelly - Country Grammar (Hot ...)
TTITLE6=LL Cool J feat.Kelly Price - Between You And Me
TTITLE7=All Saints - All Hooked Up
TTITLE8=Samantha Mumba - Gotta Tell You [Radio Edit]
TTITLE9=Vanessa Amorosi - Shine
TTITLE10=Melanie C - If That Were Me
TTITLE11=Ronan Keating - The Way You Make Me Feel
TTITLE12=U2 - Stuck In A Moment (You Can't Get Out Of)
TTITLE13=Texas - Inner Smile
TTITLE14=Highland - Veni, Vidi, Vici
TTITLE15=Alice Deejay - Celebrate Your Love
TTITLE16=Resistance D - You Were There
TTITLE17=RMB - Deep Down Below
TTITLE18=The Horrorist - One Night In NYC
TTITLE19=Take This Sound (Out Of My Head) - Take This Sound (Out Of My Head)
TTITLE20=Aerger - Kleine Schwester
EXTD=YEAR: 2001
EXTT0=
EXTT1=
EXTT2=
EXTT3=
EXTT4=
EXTT5=
EXTT6=
EXTT7=
EXTT8=
EXTT9=
EXTT10=
EXTT11=
EXTT12=
EXTT13=
EXTT14=
EXTT15=
EXTT16=
EXTT17=
EXTT18=
EXTT19=
EXTT20=
PLAYORDER=
